<?xml version="1.0" encoding="UTF-8"?><svg id="Capa_1" xmlns="http://www.w3.org/2000/svg" viewBox="0 0 601 120"><defs><style>.cls-1{fill:#000;stroke-width:0px;}</style></defs><path class="cls-1" d="M76.82,76.63v13.67H13.41v-10.88L53.19,31.45H14.24v-13.67h61.02v10.88l-39.68,47.97h41.24Z"/><path class="cls-1" d="M135.35,74.76h-33.67l-6.42,15.54h-17.2L110.38,17.78h16.58l32.43,72.52h-17.61l-6.42-15.54ZM130.07,62.02l-11.5-27.77-11.5,27.77h23Z"/><path class="cls-1" d="M213.16,90.3l-13.99-20.2h-15.44v20.2h-16.78V17.78h31.39c19.37,0,31.5,10.05,31.5,26.32,0,10.88-5.49,18.86-14.92,22.9l16.27,23.31h-18.03ZM197.41,31.45h-13.68v25.28h13.68c10.26,0,15.44-4.77,15.44-12.64s-5.18-12.64-15.44-12.64Z"/><path class="cls-1" d="M243.1,75.92v14.39h32.95c23.73,0,39.99-14.3,39.99-36.26s-16.27-36.26-39.99-36.26h-32.95v14.15h16.78l15.33-.37c14.4,0,23.83,8.6,23.83,22.48s-9.43,22.48-23.83,22.48h-15.33"/><path class="cls-1" d="M325.57,17.78c0-5.08,4.04-9.01,10.05-9.01s10.05,3.73,10.05,8.7c0,5.39-4.04,9.32-10.05,9.32s-10.05-3.94-10.05-9.01ZM327.54,34.56h16.16v55.74h-16.16v-55.74Z"/><path class="cls-1" d="M416.23,34.56v46.42c0,20.72-11.19,30.25-31.29,30.25-10.57,0-20.82-2.59-27.35-7.67l6.42-11.6c4.77,3.83,12.54,6.32,19.69,6.32,11.4,0,16.37-5.18,16.37-15.23v-2.38c-4.25,4.66-10.36,6.94-17.61,6.94-15.44,0-27.87-10.67-27.87-26.94s12.43-26.94,27.87-26.94c7.77,0,14.19,2.59,18.44,7.98v-7.15h15.33ZM400.27,60.67c0-8.19-6.11-13.68-14.61-13.68s-14.71,5.49-14.71,13.68,6.22,13.67,14.71,13.67,14.61-5.49,14.61-13.67Z"/><path class="cls-1" d="M429.28,17.78c0-5.08,4.04-9.01,10.05-9.01s10.05,3.73,10.05,8.7c0,5.39-4.04,9.32-10.05,9.32s-10.05-3.94-10.05-9.01ZM431.25,34.56h16.16v55.74h-16.16v-55.74Z"/><path class="cls-1" d="M498.39,87.61c-3.32,2.38-8.18,3.52-13.16,3.52-13.16,0-20.82-6.74-20.82-20v-22.9h-8.6v-12.43h8.6v-13.57h16.16v13.57h13.88v12.43h-13.88v22.69c0,4.77,2.59,7.36,6.94,7.36,2.38,0,4.77-.72,6.53-2.07l4.35,11.39Z"/><path class="cls-1" d="M556.82,58.5v31.81h-15.13v-6.94c-3,5.08-8.81,7.77-16.99,7.77-13.05,0-20.82-7.25-20.82-16.89s6.94-16.68,23.93-16.68h12.85c0-6.94-4.14-10.98-12.85-10.98-5.9,0-12.02,1.97-16.06,5.18l-5.8-11.29c6.11-4.35,15.13-6.74,24.04-6.74,16.99,0,26.83,7.87,26.83,24.76ZM540.66,72.69v-5.7h-11.09c-7.56,0-9.95,2.8-9.95,6.53,0,4.04,3.42,6.74,9.12,6.74,5.39,0,10.05-2.49,11.91-7.56Z"/><path class="cls-1" d="M571.43,13.43h16.16v76.88h-16.16V13.43Z"/><polygon class="cls-1" points="283.74 54.47 250.67 54.65 242.94 33.58 283.74 54.47"/><polygon class="cls-1" points="283.74 54.47 250.67 54.65 242.94 75.36 283.74 54.47"/></svg>